<svg xmlns="http://www.w3.org/2000/svg" viewBox="0 0 512 512">
    <defs>
        <linearGradient id="a" x1="99.29" x2="455.11" y1="191.95" y2="191.95" gradientUnits="userSpaceOnUse">
            <stop offset=".32" stop-color="#5b67a6"/>
            <stop offset=".66" stop-color="#816199"/>
            <stop offset="1" stop-color="#a65b8d"/>
        </linearGradient>
        <linearGradient id="b" x1="110.35" x2="461.25" y1="368.96" y2="368.96" gradientUnits="userSpaceOnUse">
            <stop offset=".32" stop-color="#5b67a6"/>
            <stop offset="1" stop-color="#a65b8d"/>
        </linearGradient>
        <linearGradient id="c" x1="56.89" x2="203.89" y1="207.32" y2="207.32" gradientUnits="userSpaceOnUse">
            <stop offset="0" stop-color="#a65b8d"/>
            <stop offset=".31" stop-color="#ff8c66"/>
            <stop offset=".72" stop-color="#ffa98c"/>
        </linearGradient>
    </defs>
    <path fill="url(#a)" d="M455.11 204.62a156.11 156.11 0 0 1-69.88 130.3h-.06l-66.07-66.07-2.46-2.47v-.08a64.25 64.25 0 0 0 46.26-61.1c.32-35.65-29.62-64.81-65.26-64.81h-107L99.31 49.05v-.08h214.87a156.27 156.27 0 0 1 140.93 155.65z"/>
    <path fill="url(#b)" d="M428.87 463.03L240.72 274.89h-49.16l-40.6 40.6L298.5 463.03h130.37z"/>
    <path fill="url(#c)" d="M104.19 107.62h-47.3l99.7 99.7-99.7 99.7h47.3l99.7-99.7-99.7-99.7z"/>
</svg>
